<svg width="200" height="200" viewBox="0 0 202 267" fill="none" xmlns="http://www.w3.org/2000/svg">
<path d="M182.772 182.555C180.075 175.418 172.103 171.82 164.966 174.517L40.4805 221.568C38.3815 222.362 37.3231 224.706 38.1164 226.805L47.1867 250.803C47.98 252.902 50.3246 253.96 52.4236 253.167L176.91 206.116C184.046 203.418 187.645 195.446 184.947 188.31L182.772 182.555Z" fill="black" stroke="black" stroke-width="4.87549" stroke-linejoin="round"/>
<line y1="-2.43774" x2="58.8704" y2="-2.43774" transform="matrix(0.935414 -0.353553 -0.353553 -0.935414 42.9894 236.798)" stroke="black" stroke-width="4.87549"/>
<line x1="3.25032" y1="-3.25032" x2="14.3205" y2="-3.25032" transform="matrix(0.353553 0.935414 0.935414 -0.353553 95.5726 209.41)" stroke="black" stroke-width="6.50065" stroke-linecap="round"/>
<path d="M28.9112 202.45C26.2138 195.314 29.8125 187.342 36.9489 184.645L161.435 137.593C163.534 136.8 165.878 137.859 166.672 139.958L175.742 163.955C176.535 166.054 175.477 168.399 173.378 169.192L48.892 216.243C41.7556 218.941 33.7837 215.342 31.0864 208.206L28.9112 202.45Z" fill="#003A4D" stroke="black" stroke-width="4.87549" stroke-linejoin="round"/>
<line x1="170.489" y1="152.955" x2="115.42" y2="173.769" stroke="black" stroke-width="4.87549"/>
<line x1="116.263" y1="166.806" x2="120.177" y2="177.161" stroke="black" stroke-width="6.50065" stroke-linecap="round"/>
<path d="M157.641 116.064C154.943 108.927 146.972 105.329 139.835 108.026L15.3492 155.077C13.2502 155.871 12.1918 158.215 12.9852 160.314L22.0554 184.312C22.8487 186.411 25.1934 187.469 27.2923 186.676L151.778 139.625C158.915 136.927 162.513 128.955 159.816 121.819L157.641 116.064Z" fill="#FF7A92" stroke="black" stroke-width="4.87549" stroke-linejoin="round"/>
<line y1="-2.43774" x2="58.8704" y2="-2.43774" transform="matrix(0.935414 -0.353553 -0.353553 -0.935414 17.858 170.307)" stroke="black" stroke-width="4.87549"/>
<line x1="3.25032" y1="-3.25032" x2="14.3205" y2="-3.25032" transform="matrix(0.353553 0.935414 0.935414 -0.353553 70.4414 142.919)" stroke="black" stroke-width="6.50065" stroke-linecap="round"/>
<path d="M27.3559 249.43C24.984 243.155 28.1485 236.144 34.424 233.773L136.02 195.373C137.866 194.675 139.928 195.606 140.626 197.452L147.699 216.167C148.397 218.012 147.466 220.074 145.62 220.772L44.0239 259.172C37.7484 261.544 30.7384 258.379 28.3664 252.104L27.3559 249.43Z" fill="#FF8A00" stroke="black" stroke-width="4.28728" stroke-linejoin="round"/>
<line x1="143.747" y1="207.73" x2="98.2956" y2="224.909" stroke="black" stroke-width="4.28728"/>
<line x1="99.2008" y1="219.22" x2="102.232" y2="227.24" stroke="black" stroke-width="5.71638" stroke-linecap="round"/>
<path d="M133.508 178.62C131.136 172.345 124.126 169.18 117.851 171.552L16.2541 209.952C14.4084 210.65 13.4776 212.711 14.1753 214.557L21.2489 233.272C21.9465 235.118 24.0083 236.049 25.8541 235.351L127.45 196.951C133.726 194.579 136.89 187.569 134.519 181.294L133.508 178.62Z" fill="#1040BC" stroke="black" stroke-width="4.28728" stroke-linejoin="round"/>
<line y1="-2.14364" x2="48.5892" y2="-2.14364" transform="matrix(0.935414 -0.353553 -0.353553 -0.935414 17.8753 222.325)" stroke="black" stroke-width="4.28728"/>
<line x1="2.85819" y1="-2.85819" x2="11.4327" y2="-2.85819" transform="matrix(0.353553 0.935414 0.935414 -0.353553 61.3053 199.799)" stroke="black" stroke-width="5.71638" stroke-linecap="round"/>
<path d="M7.05762 195.726C4.68571 189.45 7.85018 182.44 14.1257 180.068L115.722 141.668C117.568 140.971 119.63 141.902 120.327 143.747L127.401 162.462C128.098 164.308 127.168 166.37 125.322 167.068L23.7256 205.467C17.4501 207.839 10.44 204.675 8.06814 198.399L7.05762 195.726Z" fill="#96001B" stroke="black" stroke-width="4.28728" stroke-linejoin="round"/>
<line x1="123.448" y1="154.026" x2="77.9972" y2="171.205" stroke="black" stroke-width="4.28728"/>
<line x1="78.9024" y1="165.515" x2="81.934" y2="173.536" stroke="black" stroke-width="5.71638" stroke-linecap="round"/>
<path d="M160.847 21.0469C160.847 21.0469 163.54 20.7296 167.561 22.7758C171.582 24.8219 172.911 27.1854 172.911 27.1854" stroke="black" stroke-width="1.50394"/>
<rect x="141.065" y="1.89028" width="27.8229" height="18.0473" rx="3.15828" transform="rotate(26.969 141.065 1.89028)" fill="#B1FAFF" stroke="black" stroke-width="1.50394"/>
<rect x="175.915" y="19.6236" width="27.8229" height="18.0473" rx="3.15828" transform="rotate(26.969 175.915 19.6236)" fill="#B1FAFF" stroke="black" stroke-width="1.50394"/>
</svg>
