<svg width="318" height="318" viewBox="0 0 318 318" fill="none" xmlns="http://www.w3.org/2000/svg">
<g clip-path="url(#clip0_18_1256)">
<path d="M120.947 166.099L140.776 173.817C140.801 160.214 144.004 145.214 148.648 129.896C140.164 76.0992 107.163 41.301 90.8907 40.2377C111.075 69.6084 101.252 124.186 120.947 166.099Z" fill="#00DA6C"/>
<path d="M186.167 144.059C179.468 159.016 171.308 172.087 162.513 182.276L181.961 189.844C225.188 172.417 254.459 125.409 289.188 117.408C276.478 107.193 229.017 110.678 186.167 144.059Z" fill="#00DA6C"/>
<path d="M162.513 182.276C191.463 149.633 212.244 80.439 201.912 48.3162C172.796 63.3311 141.423 129.28 140.777 173.817L162.513 182.276Z" fill="#00DA6C"/>
<path d="M200.798 99.6956C197.595 114.696 192.57 129.865 186.167 144.059C198.31 134.294 211.088 127.412 223.124 122.436C235.099 102.946 246.482 84.9817 261.442 75.8743C250.765 71.719 225.762 79.5521 200.798 99.6956Z" fill="#00AD55"/>
<path d="M167.621 86.7843C163.221 55.2135 150.091 32.5399 139.413 28.3844C144.663 45.3568 140.527 66.1409 136.178 88.5989C141.684 100.402 146.299 114.493 148.647 129.897C153.673 114.727 159.99 99.6222 167.621 86.7843Z" fill="#00AD55"/>
<path d="M66.2625 250.201L165.411 288.787L195.092 212.518L95.9437 173.933L66.2625 250.201Z" fill="#FFE100"/>
<path d="M181.736 246.839L144.654 263.144L130.677 231.359L98.8926 245.336L82.5872 208.254L91.4915 185.373L107.797 222.455L139.582 208.479L153.558 240.264L190.64 223.958L181.736 246.839Z" fill="#63D3FD"/>
<path d="M153.971 284.334L165.411 288.787L181.736 246.839L165.843 253.827L153.971 284.334Z" fill="#FFA800"/>
<path d="M183.652 208.066L174.748 230.946L190.64 223.958L195.092 212.518L183.652 208.066Z" fill="#FFA800"/>
<path d="M165.843 253.827L181.736 246.839L190.64 223.958L174.748 230.946L165.843 253.827Z" fill="#3DB9F9"/>
<path d="M92.13 172.449L198.906 214.002L204.842 198.749L98.0661 157.195L92.13 172.449Z" fill="#FFE100"/>
<path d="M187.466 209.55L198.906 214.002L204.842 198.749L193.402 194.297L187.466 209.55Z" fill="#FFA800"/>
<path d="M92.13 172.449L103.57 176.901L109.506 161.647L98.0661 157.195L92.13 172.449Z" fill="white"/>
<path d="M66.2625 250.201L77.7027 254.653L107.384 178.385L95.9436 173.933L66.2625 250.201Z" fill="white"/>
<path d="M143.169 266.958C142.025 266.513 141.411 265.835 140.945 264.775L128.6 236.698L100.523 249.044C98.4041 249.976 96.1161 249.085 95.184 246.966L78.8786 209.884C78.4126 208.825 78.3281 207.914 78.7733 206.77L87.6776 183.889C88.2712 182.364 89.6278 181.135 91.3013 181.348C93.1234 181.178 94.5006 182.154 95.1994 183.743L109.874 217.117L137.951 204.771C140.07 203.84 142.358 204.73 143.29 206.849L155.636 234.926L189.01 220.251C190.599 219.552 192.273 219.765 193.502 221.121C194.73 222.477 195.047 223.918 194.454 225.443L185.55 248.324C185.104 249.468 184.426 250.082 183.367 250.548L146.285 266.853C145.225 267.318 144.313 267.403 143.169 266.958ZM132.161 227.546C133.305 227.991 133.92 228.669 134.385 229.729L146.731 257.806L178.516 243.83L183.265 231.627L155.188 243.972C153.069 244.904 150.781 244.013 149.849 241.894L137.504 213.818L109.427 226.163C107.308 227.095 105.02 226.205 104.088 224.086L91.7422 196.009L86.9931 208.212L100.969 239.997L129.046 227.651C130.106 227.185 131.017 227.101 132.161 227.546Z" fill="black"/>
<path d="M197.422 217.816L90.6459 176.262C88.3579 175.371 87.4263 173.253 88.3167 170.965L94.2529 155.711C95.1433 153.423 97.2621 152.491 99.5501 153.382L206.325 194.935C208.614 195.826 209.545 197.945 208.655 200.233L202.719 215.486C201.829 217.774 199.71 218.706 197.422 217.816ZM97.4277 170.12L196.576 208.705L199.545 201.078L100.396 162.493L97.4277 170.12Z" fill="black"/>
<path d="M163.927 292.6L64.7785 254.014C62.4905 253.124 61.5588 251.005 62.4492 248.717L92.1304 172.449C93.0208 170.161 95.1396 169.229 97.4277 170.12L196.577 208.705C198.865 209.595 199.796 211.714 198.906 214.002L169.225 290.271C168.334 292.559 166.215 293.49 163.927 292.6ZM71.5599 247.871L163.082 283.489L189.795 214.847L98.2729 179.23L71.5599 247.871V247.871Z" fill="black"/>
<path d="M184.683 147.872C184.302 147.724 183.921 147.575 183.539 147.427C182.163 146.452 181.761 144.1 182.354 142.575C188.608 128.762 193.633 113.593 196.687 98.9745C196.984 98.2117 197.43 97.0676 197.959 96.8348C222.245 77.3057 249.198 66.7184 262.926 72.061C264.452 72.6546 265.299 73.8626 265.468 75.6847C265.637 77.5068 264.662 78.8839 263.454 79.7312C248.642 88.4569 237.493 106.951 226.492 125.064C226.195 125.826 225.517 126.44 224.606 126.525C212.04 131.734 200.025 138.914 188.709 147.683C187.501 148.53 186.209 148.466 184.683 147.872ZM204.696 102.091C202.511 112.218 199.415 122.429 195.408 132.726C203.185 127.409 211.428 123.153 220.286 119.574C229.04 104.978 238.323 90.1489 249.852 79.7064C239.3 80.8691 222.645 87.5603 204.696 102.091Z" fill="black"/>
<path d="M147.164 133.71C146.02 133.265 144.792 131.908 144.474 130.467C142.062 116.356 138.061 102.943 132.47 90.2291C131.856 89.551 131.771 88.6398 132.068 87.877C136.057 67.4741 140.49 45.9277 135.472 29.4849C135.155 28.044 135.367 26.3704 136.575 25.5232C137.931 24.2949 139.372 23.9773 140.898 24.5708C154.626 29.9134 167.48 55.5537 171.796 86.2133C171.88 87.1245 171.965 88.0354 171.286 88.6497C163.656 101.488 157.487 116.211 152.61 130.999C151.867 132.906 150.13 133.986 148.456 133.774C147.926 134.006 147.545 133.858 147.164 133.71ZM140.352 88.0279C144.079 96.5036 147.276 105.213 149.796 114.536C153.654 104.621 158.424 94.6213 163.659 85.6815C160.105 63.2219 152.354 47.0326 145.513 38.6619C146.95 54.1503 143.768 71.3539 140.352 88.0279Z" fill="black"/>
<path d="M139.293 177.63L119.463 169.913C118.319 169.468 117.705 168.79 117.239 167.73C107.011 146.625 104.664 123.318 102.17 100.392C99.5267 77.848 97.3497 56.3631 87.4164 42.398C86.5693 41.19 86.7816 39.5164 87.2269 38.3724C88.2016 36.9955 89.4097 36.1484 91.2317 35.9791C101.042 36.7232 114.281 46.7055 126.058 62.705C139.529 81.1204 148.867 104.514 152.971 128.944C153.204 129.473 152.907 130.236 152.759 130.617C147.967 146.316 145.293 161.083 144.951 173.245C144.887 174.538 144.294 176.063 143.235 176.529C141.878 177.758 140.437 178.075 139.293 177.63ZM123.956 162.88L136.922 167.925C137.497 156.293 140.339 143.348 144.389 129.556C137.153 87.2218 115.295 57.6387 99.7029 48.0579C106.225 62.8906 108.445 80.8794 110.22 100.012C112.928 121.264 115.189 143.66 123.956 162.88Z" fill="black"/>
<path d="M138.53 177.333C137.767 177.036 136.771 176.21 136.306 175.15C126.458 154.193 124.494 131.035 122.995 108.936C121.537 91.2439 120.397 74.9927 115.103 61.5159C114.171 59.3971 115.062 57.1091 117.181 56.177C119.3 55.2449 121.588 56.1358 122.52 58.2547C128.28 72.7907 129.504 89.9532 131.195 108.175C132.99 129.511 134.489 151.61 143.871 171.507C144.802 173.626 143.912 175.914 141.793 176.846C140.585 177.694 139.674 177.778 138.53 177.333Z" fill="black"/>
<path d="M180.477 193.658L161.029 186.089C159.885 185.644 159.038 184.436 158.572 183.377C158.254 181.936 158.699 180.792 159.526 179.796C167.876 170.751 176.037 157.68 182.736 142.723C183.033 141.961 183.562 141.728 183.859 140.965C227.535 106.588 277.115 102.172 291.816 114.041C293.193 115.015 293.511 116.456 293.298 118.13C293.086 119.804 291.73 121.033 290.289 121.35C273.38 125.308 257.402 139.288 240.215 154.115C223.028 168.942 205.015 184.765 183.592 193.553C182.532 194.018 181.24 193.954 180.477 193.658ZM169.336 180.54L181.92 185.437C201.372 177.2 218.559 162.373 234.686 148.011C249.309 135.26 262.723 123.356 277.556 116.834C259.59 113.355 223.484 120.38 189.535 146.687C183.579 159.737 176.394 171.431 169.336 180.54Z" fill="black"/>
<path d="M161.791 186.386C160.647 185.941 160.033 185.262 159.567 184.203C158.636 182.084 159.526 179.796 161.645 178.864C182.008 170.542 198.665 155.948 215.026 142.116C232.361 126.908 248.87 112.695 267.6 108.568C269.953 108.166 272.092 109.438 272.494 111.79C272.896 114.142 271.624 116.281 269.272 116.683C252.364 120.641 236.681 133.859 220.025 148.453C203.368 163.047 186.181 177.874 164.377 186.514C163.847 186.747 162.554 186.683 161.791 186.386Z" fill="black"/>
<path d="M161.029 186.089L139.293 177.63C137.767 177.036 136.687 175.299 136.751 174.006C137.377 127.266 169.81 60.8511 200.133 44.9889C200.96 43.9932 202.252 44.0572 203.396 44.5024C204.54 44.9476 205.536 45.7741 205.853 47.2149C216.651 80.3974 196.039 151.413 165.352 185.137C164.525 186.132 162.554 186.683 161.029 186.089ZM144.93 171.042L161.328 177.423C187.332 146.707 205.611 86.2002 199.389 54.7986C173.494 72.8229 146.444 129.917 144.93 171.042Z" fill="black"/>
<path d="M149.97 181.785C147.682 180.895 146.75 178.776 147.641 176.488L180.29 92.5926C181.181 90.3046 183.299 89.373 185.587 90.2634C187.875 91.1538 188.807 93.2726 187.917 95.5606L155.267 179.456C154.377 181.744 152.258 182.676 149.97 181.785Z" fill="black"/>
</g>
<defs>
<clipPath id="clip0_18_1256">
<rect width="245.52" height="245.52" fill="white" transform="translate(89.0433) rotate(21.2644)"/>
</clipPath>
</defs>
</svg>
