<svg width="174" height="174" viewBox="0 0 174 174" fill="none" xmlns="http://www.w3.org/2000/svg">
<g clip-path="url(#clip0_11_33)">
<path d="M64.4027 91.0552C48.4769 57.6388 23.4433 58.5388 23.4433 58.5388C44.5445 40.3443 64.6369 40.568 82.2914 85.241L64.4026 91.055L64.4027 91.0552Z" fill="#00DA6C"/>
<path d="M83.1641 84.9577L82.2916 85.2413C75.1031 66.8342 67.2057 55.8938 59.2649 50.756C55.9759 34.6996 68.9836 22.0299 80.3277 18.343C77.5299 23.835 73.3303 32.436 80.1259 54.8299C79.1991 62.3674 79.9955 72.239 83.1641 84.9577Z" fill="#00AD55"/>
<path d="M97.7808 80.2072L83.1644 84.9576C65.4168 14.0237 123.382 32.8122 123.741 33.1777C104.543 39.417 97.0498 61.6311 97.7808 80.2072Z" fill="#00DA6C"/>
<path d="M130.614 132.248L123.36 83.9538L49.1862 108.061L71.7113 151.392L130.614 132.248Z" fill="#FFE100"/>
<path d="M49.1862 108.061L71.7113 151.392L76.947 149.69L55.7309 105.934L49.1862 108.061Z" fill="black"/>
<path d="M116.815 86.0809L125.378 133.95L130.614 132.248L123.36 83.9538L116.815 86.0809Z" fill="#FFA800"/>
<path d="M138.904 139.202L69.0933 161.891L64.0756 153.874L138.249 129.767L138.904 139.202Z" fill="#FFE100"/>
<path d="M64.0756 153.874L69.0933 161.891L75.2018 159.906L70.6204 151.747L64.0756 153.874Z" fill="black"/>
<path d="M131.704 131.894L132.795 141.188L138.904 139.202L138.249 129.767L131.704 131.894Z" fill="#FFA800"/>
<path d="M47.0046 108.77L125.541 83.2447L121.996 72.337L43.4596 97.8619L47.0046 108.77Z" fill="#FFE100"/>
<path d="M40.4599 110.897L47.0046 108.77L43.4596 97.8619L36.9148 99.989L40.4599 110.897Z" fill="black"/>
<path d="M125.541 83.2447L132.086 81.1177L128.541 70.21L121.996 72.337L125.541 83.2447Z" fill="#FFA800"/>
<path d="M132.795 83.2994L41.169 113.078C39.86 113.504 38.7039 112.915 38.2785 111.606L34.7333 100.698C34.3079 99.389 34.8969 98.2329 36.2058 97.8075L127.832 68.0285C129.141 67.6031 130.297 68.192 130.723 69.501L134.268 80.4089C134.693 81.7176 134.104 82.874 132.795 83.2994ZM41.9324 108.006L129.195 79.6453L127.068 73.1005L39.8053 101.461L41.9324 108.006Z" fill="black"/>
<path d="M139.613 141.384L69.8023 164.073C68.7114 164.427 67.6261 164.056 67.0535 163.036L62.036 155.019C61.6052 154.435 61.6105 153.71 61.8342 152.914C62.1288 152.336 62.7124 151.905 63.3669 151.692L137.54 127.585C138.195 127.373 138.92 127.378 139.569 127.891C140.148 128.185 140.649 128.987 140.644 129.712L141.298 139.147C141.363 140.091 140.704 141.029 139.613 141.384ZM70.1295 159.142L136.449 137.588L136.122 132.87L67.6206 155.133L70.1295 159.142Z" fill="black"/>
<path d="M131.323 134.43L72.4203 153.574C71.3294 153.928 70.1733 153.339 69.6715 152.537L47.1465 109.206C46.9337 108.552 46.721 107.897 47.0156 107.319C47.3102 106.741 47.8229 106.092 48.4774 105.879L122.651 81.7723C123.305 81.5595 124.031 81.5649 124.68 82.0775C125.258 82.3721 125.689 82.9557 125.683 83.6811L132.937 131.976C133.003 132.919 132.413 134.076 131.323 134.43ZM72.7473 148.643L127.941 130.705L121.451 86.9864L52.5131 109.392L72.7473 148.643Z" fill="black"/>
<path d="M71.6021 117.66L56.3311 122.623C55.0222 123.048 53.866 122.459 53.4406 121.15C53.0152 119.841 53.6042 118.685 54.9131 118.26L70.1841 113.297C71.493 112.871 72.6491 113.46 73.0746 114.769C73.4999 116.078 72.911 117.234 71.6021 117.66Z" fill="black"/>
<path d="M82.5097 114.115L80.3283 114.824C79.0193 115.249 77.8632 114.66 77.4378 113.351C77.0124 112.042 77.6013 110.886 78.9103 110.461L81.0918 109.752C82.4007 109.326 83.5568 109.915 83.9822 111.224C84.4078 112.533 83.8187 113.689 82.5097 114.115Z" fill="black"/>
<path d="M99.0898 128.022L96.9084 128.731C95.5994 129.156 94.4433 128.567 94.0179 127.258C93.5925 125.949 94.1814 124.793 95.4904 124.368L97.6719 123.659C98.9808 123.233 100.137 123.822 100.562 125.131C100.988 126.44 100.399 127.596 99.0898 128.022Z" fill="black"/>
<path d="M128.978 118.308L107.816 125.186C106.507 125.611 105.351 125.022 104.926 123.713C104.5 122.404 105.089 121.248 106.398 120.823L127.56 113.945C128.868 113.52 130.025 114.109 130.45 115.418C130.875 116.727 130.068 117.954 128.978 118.308Z" fill="black"/>
<path d="M83.0005 87.4228L65.1117 93.2367C64.0208 93.5913 62.8647 93.0023 62.2921 91.9823C47.2226 60.4587 23.716 60.8624 23.498 60.9333C22.4836 60.7805 21.6164 60.3387 21.3328 59.4662C21.0492 58.5936 21.202 57.579 21.9328 56.8593C33.3968 46.8621 43.5085 43.0935 52.9929 45.5584C65.0843 48.6236 75.436 61.1785 84.4733 84.5322C84.686 85.1867 84.6098 85.694 84.3151 86.2719C84.0205 86.8502 83.655 87.2101 83.0005 87.4228ZM65.657 88.2354L79.401 83.7685C71.2092 63.7581 61.9373 52.2994 52.0165 49.976C45.2099 48.3291 37.7216 50.5214 29.4045 56.8425C37.6617 58.5008 53.7183 64.86 65.657 88.2354Z" fill="black"/>
<path d="M83.8731 87.1392L83.0005 87.4228C81.9097 87.7773 80.5355 87.2592 80.1809 86.1683C73.4178 69.0702 65.9569 57.9879 58.0158 52.8503C57.4376 52.5557 57.2249 51.9013 57.0832 51.4651C53.3744 33.3743 68.0565 19.9193 79.6187 16.1615C80.4912 15.8779 81.5059 16.0307 82.0075 16.8323C82.7275 17.5631 82.7928 18.5068 82.3511 19.374C79.7005 24.5771 75.7246 32.3817 82.3075 54.1211C82.3784 54.3392 82.5202 54.7756 82.373 55.0645C81.5167 62.82 82.3131 72.6916 85.3456 84.2487C85.7713 85.5576 84.964 86.7846 83.8731 87.1392ZM61.4518 49.3217C67.3692 53.4284 72.976 60.2894 78.0538 69.9757C77.443 64.3854 77.263 59.3786 77.7318 54.8846C72.7797 38.1629 73.7939 28.6676 75.7247 22.7337C67.4182 27.6039 59.4393 37.192 61.4518 49.3217Z" fill="black"/>
<path d="M98.4898 82.3887L83.8733 87.1391C83.2189 87.3518 82.7116 87.2756 82.1336 86.9809C81.5554 86.6864 81.1246 86.1028 80.9119 85.4483C74.2962 58.4132 77.4047 40.5186 90.5215 32.6376C104.222 24.3258 123.981 30.2051 125.35 31.4484C126 31.9611 126.283 32.8336 126.059 33.6299C125.836 34.4262 125.323 35.0753 124.451 35.3589C106.562 41.1729 99.368 62.0835 100.175 80.1523C100.022 81.1671 99.3624 82.1051 98.4898 82.3887ZM84.8548 81.996L95.5445 78.5218C95.3098 61.4727 101.838 42.2259 116.7 33.7776C109.528 32.4905 97.9985 31.8961 90.0412 38.5828C81.5715 45.9182 79.8645 60.704 84.8548 81.996Z" fill="black"/>
</g>
<defs>
<clipPath id="clip0_11_33">
<rect width="137.634" height="137.634" fill="white" transform="translate(0 42.5414) rotate(-18.0044)"/>
</clipPath>
</defs>
</svg>
