<?xml version="1.0" encoding="UTF-8" standalone="no"?><!DOCTYPE svg PUBLIC "-//W3C//DTD SVG 1.1//EN" "http://www.w3.org/Graphics/SVG/1.1/DTD/svg11.dtd"><svg width="100%" height="100%" viewBox="0 0 3856 3856" version="1.1" xmlns="http://www.w3.org/2000/svg" xmlns:xlink="http://www.w3.org/1999/xlink" xml:space="preserve" xmlns:serif="http://www.serif.com/" style="fill-rule:evenodd;clip-rule:evenodd;stroke-linejoin:round;stroke-miterlimit:2;"><g><g><path d="M3510.64,1449.14c-28.342,28.342 -74.363,28.342 -102.705,-0c-28.342,-28.342 -28.342,-74.363 0,-102.705c28.342,-28.342 74.363,-28.342 102.705,0c28.342,28.342 28.342,74.363 0,102.705Z" style="fill:#b1b1b1;"/><path d="M3613.34,1654.55c-28.342,-28.343 -28.342,-74.363 -0,-102.705c28.342,-28.342 74.363,-28.342 102.705,-0c28.342,28.342 28.342,74.362 -0,102.705c-28.342,28.342 -74.363,28.342 -102.705,-0Z" style="fill:#b1b1b1;"/><path d="M3302.41,1657.37c-28.342,28.342 -74.363,28.342 -102.705,0c-28.342,-28.342 -28.342,-74.363 0,-102.705c28.342,-28.342 74.363,-28.342 102.705,0c28.342,28.342 28.342,74.363 0,102.705Z" style="fill:#b1b1b1;"/><path d="M3405.11,1862.78c-28.342,-28.342 -28.342,-74.363 -0,-102.705c28.342,-28.342 74.363,-28.342 102.705,-0c28.342,28.342 28.342,74.363 -0,102.705c-28.342,28.342 -74.363,28.342 -102.705,-0Z" style="fill:#b1b1b1;"/><path d="M3097,1862.78c-28.342,28.342 -74.362,28.342 -102.705,-0c-28.342,-28.342 -28.342,-74.363 0,-102.705c28.343,-28.342 74.363,-28.342 102.705,-0c28.343,28.342 28.343,74.363 0,102.705Z" style="fill:#b1b1b1;"/><path d="M3199.7,2068.19c-28.342,-28.342 -28.342,-74.362 0,-102.704c28.342,-28.343 74.363,-28.343 102.705,-0c28.342,28.342 28.342,74.362 0,102.704c-28.342,28.343 -74.363,28.343 -102.705,0Z" style="fill:#b1b1b1;"/><path d="M2891.59,2068.19c-28.343,28.343 -74.363,28.343 -102.705,0c-28.342,-28.342 -28.342,-74.362 -0,-102.704c28.342,-28.343 74.362,-28.343 102.705,-0c28.342,28.342 28.342,74.362 -0,102.704Z" style="fill:#b1b1b1;"/><path d="M2994.29,2273.6c-28.342,-28.342 -28.342,-74.363 0,-102.705c28.343,-28.342 74.363,-28.342 102.705,0c28.343,28.342 28.343,74.363 0,102.705c-28.342,28.342 -74.362,28.342 -102.705,0Z" style="fill:#b1b1b1;"/><path d="M2686.18,2273.6c-28.342,28.342 -74.363,28.342 -102.705,0c-28.342,-28.342 -28.342,-74.363 0,-102.705c28.342,-28.342 74.363,-28.342 102.705,0c28.342,28.342 28.342,74.363 -0,102.705Z" style="fill:#b1b1b1;"/><path d="M2788.89,2479.01c-28.342,-28.342 -28.342,-74.363 -0,-102.705c28.342,-28.342 74.362,-28.342 102.705,-0c28.342,28.342 28.342,74.363 -0,102.705c-28.343,28.342 -74.363,28.342 -102.705,-0Z" style="fill:#b1b1b1;"/><path d="M2480.77,2479.01c-28.342,28.342 -74.362,28.342 -102.705,-0c-28.342,-28.342 -28.342,-74.363 0,-102.705c28.343,-28.342 74.363,-28.342 102.705,-0c28.342,28.342 28.342,74.363 0,102.705Z" style="fill:#b1b1b1;"/><path d="M2583.47,2684.42c-28.342,-28.342 -28.342,-74.362 0,-102.704c28.342,-28.343 74.363,-28.343 102.705,-0c28.342,28.342 28.342,74.362 -0,102.704c-28.342,28.343 -74.363,28.343 -102.705,0Z" style="fill:#b1b1b1;"/><path d="M2275.36,2684.42c-28.343,28.343 -74.363,28.343 -102.705,0c-28.342,-28.342 -28.342,-74.362 -0,-102.704c28.342,-28.343 74.362,-28.343 102.705,-0c28.342,28.342 28.342,74.362 -0,102.704Z" style="fill:#b1b1b1;"/><path d="M2378.07,2889.83c-28.342,-28.342 -28.342,-74.363 0,-102.705c28.343,-28.342 74.363,-28.342 102.705,0c28.342,28.342 28.342,74.363 0,102.705c-28.342,28.342 -74.362,28.342 -102.705,0Z" style="fill:#b1b1b1;"/><path d="M2069.95,2889.83c-28.342,28.342 -74.363,28.342 -102.705,0c-28.342,-28.342 -28.342,-74.363 0,-102.705c28.342,-28.342 74.363,-28.342 102.705,0c28.342,28.342 28.342,74.363 -0,102.705Z" style="fill:#b1b1b1;"/><path d="M2172.66,3095.24c-28.342,-28.342 -28.342,-74.363 -0,-102.705c28.342,-28.342 74.362,-28.342 102.705,-0c28.342,28.342 28.342,74.363 -0,102.705c-28.343,28.342 -74.363,28.342 -102.705,-0Z" style="fill:#b1b1b1;"/><path d="M1864.54,3095.24c-28.342,28.342 -74.362,28.342 -102.705,-0c-28.342,-28.342 -28.342,-74.363 0,-102.705c28.343,-28.342 74.363,-28.342 102.705,-0c28.342,28.342 28.342,74.363 0,102.705Z" style="fill:#b1b1b1;"/><path d="M1967.25,3300.64c-28.342,-28.342 -28.342,-74.362 0,-102.704c28.342,-28.343 74.363,-28.343 102.705,-0c28.342,28.342 28.342,74.362 -0,102.704c-28.342,28.343 -74.363,28.343 -102.705,0Z" style="fill:#b1b1b1;"/><path d="M1659.13,3300.64c-28.343,28.343 -74.363,28.343 -102.705,0c-28.342,-28.342 -28.342,-74.362 -0,-102.704c28.342,-28.343 74.362,-28.343 102.705,-0c28.342,28.342 28.342,74.362 -0,102.704Z" style="fill:#b1b1b1;"/><path d="M1761.84,3506.06c-28.342,-28.342 -28.342,-74.363 0,-102.705c28.343,-28.342 74.363,-28.342 102.705,0c28.342,28.342 28.342,74.363 0,102.705c-28.342,28.342 -74.362,28.342 -102.705,0Z" style="fill:#b1b1b1;"/><path d="M1453.72,3506.06c-28.342,28.342 -74.363,28.342 -102.705,0c-28.342,-28.342 -28.342,-74.363 0,-102.705c28.342,-28.342 74.363,-28.342 102.705,0c28.342,28.342 28.342,74.363 -0,102.705Z" style="fill:#b1b1b1;"/><path d="M1556.43,3711.47c-28.342,-28.342 -28.342,-74.363 -0,-102.705c28.342,-28.342 74.362,-28.342 102.705,-0c28.342,28.342 28.342,74.363 -0,102.705c-28.343,28.342 -74.363,28.342 -102.705,-0Z" style="fill:#b1b1b1;"/></g><g><path d="M2708.97,647.473c-28.342,28.342 -74.363,28.342 -102.705,-0c-28.342,-28.343 -28.342,-74.363 -0,-102.705c28.342,-28.342 74.363,-28.342 102.705,-0c28.342,28.342 28.342,74.362 -0,102.705Z" style="fill:#b1b1b1;"/><path d="M2811.67,852.882c-28.343,-28.342 -28.343,-74.362 -0,-102.705c28.342,-28.342 74.362,-28.342 102.704,0c28.343,28.343 28.343,74.363 0,102.705c-28.342,28.342 -74.362,28.342 -102.704,0Z" style="fill:#b1b1b1;"/><path d="M2500.74,855.7c-28.342,28.342 -74.363,28.342 -102.705,-0c-28.342,-28.343 -28.342,-74.363 -0,-102.705c28.342,-28.342 74.363,-28.342 102.705,-0c28.342,28.342 28.342,74.362 -0,102.705Z" style="fill:#b1b1b1;"/><path d="M2603.45,1061.11c-28.343,-28.342 -28.343,-74.362 -0,-102.705c28.342,-28.342 74.362,-28.342 102.704,0c28.343,28.343 28.343,74.363 0,102.705c-28.342,28.343 -74.362,28.343 -102.704,0Z" style="fill:#b1b1b1;"/><path d="M2295.33,1061.11c-28.342,28.343 -74.363,28.343 -102.705,0c-28.342,-28.342 -28.342,-74.362 0,-102.705c28.342,-28.342 74.363,-28.342 102.705,0c28.342,28.343 28.342,74.363 -0,102.705Z" style="fill:#b1b1b1;"/><path d="M2398.04,1266.52c-28.342,-28.342 -28.342,-74.363 -0,-102.705c28.342,-28.342 74.363,-28.342 102.705,0c28.342,28.342 28.342,74.363 -0,102.705c-28.342,28.342 -74.363,28.342 -102.705,0Z" style="fill:#b1b1b1;"/><path d="M2089.92,1266.52c-28.342,28.342 -74.362,28.342 -102.705,0c-28.342,-28.342 -28.342,-74.363 0,-102.705c28.343,-28.342 74.363,-28.342 102.705,0c28.342,28.342 28.342,74.363 0,102.705Z" style="fill:#b1b1b1;"/><path d="M2192.63,1471.93c-28.342,-28.342 -28.342,-74.363 0,-102.705c28.342,-28.342 74.363,-28.342 102.705,-0c28.342,28.342 28.342,74.363 -0,102.705c-28.342,28.342 -74.363,28.342 -102.705,-0Z" style="fill:#b1b1b1;"/><path d="M1884.51,1471.93c-28.343,28.342 -74.363,28.342 -102.705,-0c-28.342,-28.342 -28.342,-74.363 -0,-102.705c28.342,-28.342 74.362,-28.342 102.705,-0c28.342,28.342 28.342,74.363 -0,102.705Z" style="fill:#b1b1b1;"/><path d="M1987.22,1677.34c-28.342,-28.342 -28.342,-74.362 0,-102.704c28.343,-28.343 74.363,-28.343 102.705,-0c28.342,28.342 28.342,74.362 0,102.704c-28.342,28.343 -74.362,28.343 -102.705,0Z" style="fill:#b1b1b1;"/><path d="M1679.1,1677.34c-28.342,28.343 -74.363,28.343 -102.705,0c-28.342,-28.342 -28.342,-74.362 0,-102.704c28.342,-28.343 74.363,-28.343 102.705,-0c28.342,28.342 28.342,74.362 -0,102.704Z" style="fill:#b1b1b1;"/><path d="M1781.81,1882.75c-28.342,-28.342 -28.342,-74.363 -0,-102.705c28.342,-28.342 74.362,-28.342 102.705,0c28.342,28.342 28.342,74.363 -0,102.705c-28.343,28.342 -74.363,28.342 -102.705,0Z" style="fill:#b1b1b1;"/><path d="M1473.69,1882.75c-28.342,28.342 -74.362,28.342 -102.705,0c-28.342,-28.342 -28.342,-74.363 0,-102.705c28.343,-28.342 74.363,-28.342 102.705,0c28.342,28.342 28.342,74.363 0,102.705Z" style="fill:#b1b1b1;"/><path d="M1576.4,2088.16c-28.342,-28.342 -28.342,-74.363 0,-102.705c28.342,-28.342 74.363,-28.342 102.705,-0c28.342,28.342 28.342,74.363 -0,102.705c-28.342,28.342 -74.363,28.342 -102.705,-0Z" style="fill:#b1b1b1;"/><path d="M1268.28,2088.16c-28.343,28.342 -74.363,28.342 -102.705,-0c-28.342,-28.342 -28.342,-74.363 -0,-102.705c28.342,-28.342 74.362,-28.342 102.705,-0c28.342,28.342 28.342,74.363 -0,102.705Z" style="fill:#b1b1b1;"/><path d="M1370.99,2293.57c-28.342,-28.342 -28.342,-74.362 0,-102.704c28.343,-28.343 74.363,-28.343 102.705,-0c28.342,28.342 28.342,74.362 0,102.704c-28.342,28.343 -74.362,28.343 -102.705,0Z" style="fill:#b1b1b1;"/><path d="M1062.87,2293.57c-28.342,28.343 -74.363,28.343 -102.705,0c-28.342,-28.342 -28.342,-74.362 0,-102.704c28.342,-28.343 74.363,-28.343 102.705,-0c28.342,28.342 28.342,74.362 -0,102.704Z" style="fill:#b1b1b1;"/><path d="M1165.58,2498.98c-28.342,-28.342 -28.342,-74.363 -0,-102.705c28.342,-28.342 74.362,-28.342 102.705,0c28.342,28.342 28.342,74.363 -0,102.705c-28.343,28.342 -74.363,28.342 -102.705,0Z" style="fill:#b1b1b1;"/><path d="M857.463,2498.98c-28.342,28.342 -74.362,28.342 -102.705,0c-28.342,-28.342 -28.342,-74.363 0,-102.705c28.343,-28.342 74.363,-28.342 102.705,0c28.342,28.342 28.342,74.363 0,102.705Z" style="fill:#b1b1b1;"/><path d="M960.168,2704.39c-28.342,-28.342 -28.342,-74.363 0,-102.705c28.342,-28.342 74.363,-28.342 102.705,-0c28.342,28.342 28.342,74.363 -0,102.705c-28.342,28.342 -74.363,28.342 -102.705,-0Z" style="fill:#b1b1b1;"/><path d="M652.054,2704.39c-28.343,28.342 -74.363,28.342 -102.705,-0c-28.342,-28.342 -28.342,-74.363 -0,-102.705c28.342,-28.342 74.362,-28.342 102.705,-0c28.342,28.342 28.342,74.363 -0,102.705Z" style="fill:#b1b1b1;"/><path d="M754.758,2909.8c-28.342,-28.342 -28.342,-74.362 0,-102.704c28.343,-28.343 74.363,-28.343 102.705,-0c28.342,28.342 28.342,74.362 0,102.704c-28.342,28.343 -74.362,28.343 -102.705,0Z" style="fill:#b1b1b1;"/></g><g><path d="M2298.15,236.653c-28.342,28.342 -74.362,28.342 -102.704,0c-28.343,-28.342 -28.343,-74.363 -0,-102.705c28.342,-28.342 74.362,-28.342 102.704,0c28.343,28.342 28.343,74.363 0,102.705Z" style="fill:#b1b1b1;"/><path d="M2400.85,442.063c-28.342,-28.342 -28.342,-74.363 0,-102.705c28.342,-28.342 74.363,-28.342 102.705,0c28.342,28.342 28.342,74.363 0,102.705c-28.342,28.342 -74.363,28.342 -102.705,-0Z" style="fill:#b1b1b1;"/><path d="M2089.92,444.88c-28.342,28.342 -74.362,28.342 -102.705,0c-28.342,-28.342 -28.342,-74.362 0,-102.705c28.343,-28.342 74.363,-28.342 102.705,0c28.342,28.343 28.342,74.363 0,102.705Z" style="fill:#b1b1b1;"/><path d="M2192.63,650.29c-28.342,-28.342 -28.342,-74.363 0,-102.705c28.342,-28.342 74.363,-28.342 102.705,0c28.342,28.342 28.342,74.363 -0,102.705c-28.342,28.342 -74.363,28.342 -102.705,-0Z" style="fill:#b1b1b1;"/><path d="M1884.51,650.29c-28.343,28.342 -74.363,28.342 -102.705,-0c-28.342,-28.342 -28.342,-74.363 -0,-102.705c28.342,-28.342 74.362,-28.342 102.705,0c28.342,28.342 28.342,74.363 -0,102.705Z" style="fill:#b1b1b1;"/><path d="M1987.22,855.7c-28.342,-28.343 -28.342,-74.363 0,-102.705c28.343,-28.342 74.363,-28.342 102.705,-0c28.342,28.342 28.342,74.362 0,102.705c-28.342,28.342 -74.362,28.342 -102.705,-0Z" style="fill:#b1b1b1;"/><path d="M1679.1,855.7c-28.342,28.342 -74.363,28.342 -102.705,-0c-28.342,-28.343 -28.342,-74.363 0,-102.705c28.342,-28.342 74.363,-28.342 102.705,-0c28.342,28.342 28.342,74.362 -0,102.705Z" style="fill:#b1b1b1;"/><path d="M1781.81,1061.11c-28.342,-28.342 -28.342,-74.362 -0,-102.705c28.342,-28.342 74.362,-28.342 102.705,0c28.342,28.343 28.342,74.363 -0,102.705c-28.343,28.343 -74.363,28.343 -102.705,0Z" style="fill:#b1b1b1;"/><path d="M1473.69,1061.11c-28.342,28.343 -74.362,28.343 -102.705,0c-28.342,-28.342 -28.342,-74.362 0,-102.705c28.343,-28.342 74.363,-28.342 102.705,0c28.342,28.343 28.342,74.363 0,102.705Z" style="fill:#b1b1b1;"/><path d="M1576.4,1266.52c-28.342,-28.342 -28.342,-74.363 0,-102.705c28.342,-28.342 74.363,-28.342 102.705,0c28.342,28.342 28.342,74.363 -0,102.705c-28.342,28.342 -74.363,28.342 -102.705,0Z" style="fill:#b1b1b1;"/><path d="M1268.28,1266.52c-28.343,28.342 -74.363,28.342 -102.705,0c-28.342,-28.342 -28.342,-74.363 -0,-102.705c28.342,-28.342 74.362,-28.342 102.705,0c28.342,28.342 28.342,74.363 -0,102.705Z" style="fill:#b1b1b1;"/><path d="M1370.99,1471.93c-28.342,-28.342 -28.342,-74.363 0,-102.705c28.343,-28.342 74.363,-28.342 102.705,-0c28.342,28.342 28.342,74.363 0,102.705c-28.342,28.342 -74.362,28.342 -102.705,-0Z" style="fill:#b1b1b1;"/><path d="M1062.87,1471.93c-28.342,28.342 -74.363,28.342 -102.705,-0c-28.342,-28.342 -28.342,-74.363 0,-102.705c28.342,-28.342 74.363,-28.342 102.705,-0c28.342,28.342 28.342,74.363 -0,102.705Z" style="fill:#b1b1b1;"/><path d="M1165.58,1677.34c-28.342,-28.342 -28.342,-74.362 -0,-102.704c28.342,-28.343 74.362,-28.343 102.705,-0c28.342,28.342 28.342,74.362 -0,102.704c-28.343,28.343 -74.363,28.343 -102.705,0Z" style="fill:#b1b1b1;"/><path d="M857.463,1677.34c-28.342,28.343 -74.362,28.343 -102.705,0c-28.342,-28.342 -28.342,-74.362 0,-102.704c28.343,-28.343 74.363,-28.343 102.705,-0c28.342,28.342 28.342,74.362 0,102.704Z" style="fill:#b1b1b1;"/><path d="M960.168,1882.75c-28.342,-28.342 -28.342,-74.363 0,-102.705c28.342,-28.342 74.363,-28.342 102.705,0c28.342,28.342 28.342,74.363 -0,102.705c-28.342,28.342 -74.363,28.342 -102.705,0Z" style="fill:#b1b1b1;"/><path d="M652.054,1882.75c-28.343,28.342 -74.363,28.342 -102.705,0c-28.342,-28.342 -28.342,-74.363 -0,-102.705c28.342,-28.342 74.362,-28.342 102.705,0c28.342,28.342 28.342,74.363 -0,102.705Z" style="fill:#b1b1b1;"/><path d="M754.758,2088.16c-28.342,-28.342 -28.342,-74.363 0,-102.705c28.343,-28.342 74.363,-28.342 102.705,-0c28.342,28.342 28.342,74.363 0,102.705c-28.342,28.342 -74.362,28.342 -102.705,-0Z" style="fill:#b1b1b1;"/><path d="M446.644,2088.16c-28.342,28.342 -74.363,28.342 -102.705,-0c-28.342,-28.342 -28.342,-74.363 0,-102.705c28.342,-28.342 74.363,-28.342 102.705,-0c28.342,28.342 28.342,74.363 -0,102.705Z" style="fill:#b1b1b1;"/><path d="M549.349,2293.57c-28.342,-28.342 -28.342,-74.362 -0,-102.704c28.342,-28.343 74.362,-28.343 102.705,-0c28.342,28.342 28.342,74.362 -0,102.704c-28.343,28.343 -74.363,28.343 -102.705,0Z" style="fill:#b1b1b1;"/><path d="M241.234,2293.57c-28.342,28.343 -74.363,28.343 -102.705,0c-28.342,-28.342 -28.342,-74.362 0,-102.704c28.342,-28.343 74.363,-28.343 102.705,-0c28.342,28.342 28.342,74.362 0,102.704Z" style="fill:#b1b1b1;"/><path d="M343.939,2498.98c-28.342,-28.342 -28.342,-74.363 0,-102.705c28.342,-28.342 74.363,-28.342 102.705,0c28.342,28.342 28.342,74.363 -0,102.705c-28.342,28.342 -74.363,28.342 -102.705,0Z" style="fill:#b1b1b1;"/></g><g><path d="M3099.82,1038.32c-28.342,28.342 -74.363,28.342 -102.705,-0c-28.342,-28.343 -28.342,-74.363 -0,-102.705c28.342,-28.343 74.363,-28.343 102.705,-0c28.342,28.342 28.342,74.362 -0,102.705Z" style="fill:#b1b1b1;"/><path d="M3202.52,1243.73c-28.343,-28.342 -28.343,-74.362 -0,-102.705c28.342,-28.342 74.362,-28.342 102.704,0c28.343,28.343 28.343,74.363 0,102.705c-28.342,28.342 -74.362,28.342 -102.704,0Z" style="fill:#b1b1b1;"/><path d="M2891.59,1246.55c-28.343,28.342 -74.363,28.342 -102.705,-0c-28.342,-28.343 -28.342,-74.363 -0,-102.705c28.342,-28.342 74.362,-28.342 102.705,-0c28.342,28.342 28.342,74.362 -0,102.705Z" style="fill:#b1b1b1;"/><path d="M2994.29,1451.96c-28.342,-28.342 -28.342,-74.362 0,-102.705c28.343,-28.342 74.363,-28.342 102.705,0c28.343,28.343 28.343,74.363 0,102.705c-28.342,28.342 -74.362,28.342 -102.705,0Z" style="fill:#b1b1b1;"/><path d="M2686.18,1451.96c-28.342,28.342 -74.363,28.342 -102.705,0c-28.342,-28.342 -28.342,-74.362 0,-102.705c28.342,-28.342 74.363,-28.342 102.705,0c28.342,28.343 28.342,74.363 -0,102.705Z" style="fill:#b1b1b1;"/><path d="M2788.89,1657.37c-28.342,-28.342 -28.342,-74.363 -0,-102.705c28.342,-28.342 74.362,-28.342 102.705,0c28.342,28.342 28.342,74.363 -0,102.705c-28.343,28.342 -74.363,28.342 -102.705,0Z" style="fill:#b1b1b1;"/><path d="M2480.77,1657.37c-28.342,28.342 -74.362,28.342 -102.705,0c-28.342,-28.342 -28.342,-74.363 0,-102.705c28.343,-28.342 74.363,-28.342 102.705,0c28.342,28.342 28.342,74.363 0,102.705Z" style="fill:#b1b1b1;"/><path d="M2583.47,1862.78c-28.342,-28.342 -28.342,-74.363 0,-102.705c28.342,-28.342 74.363,-28.342 102.705,-0c28.342,28.342 28.342,74.363 -0,102.705c-28.342,28.342 -74.363,28.342 -102.705,-0Z" style="fill:#b1b1b1;"/><path d="M2275.36,1862.78c-28.343,28.342 -74.363,28.342 -102.705,-0c-28.342,-28.342 -28.342,-74.363 -0,-102.705c28.342,-28.342 74.362,-28.342 102.705,-0c28.342,28.342 28.342,74.363 -0,102.705Z" style="fill:#b1b1b1;"/><path d="M2378.07,2068.19c-28.342,-28.342 -28.342,-74.362 0,-102.704c28.343,-28.343 74.363,-28.343 102.705,-0c28.342,28.342 28.342,74.362 0,102.704c-28.342,28.343 -74.362,28.343 -102.705,0Z" style="fill:#b1b1b1;"/><path d="M2069.95,2068.19c-28.342,28.343 -74.363,28.343 -102.705,0c-28.342,-28.342 -28.342,-74.362 0,-102.704c28.342,-28.343 74.363,-28.343 102.705,-0c28.342,28.342 28.342,74.362 -0,102.704Z" style="fill:#b1b1b1;"/><path d="M2172.66,2273.6c-28.342,-28.342 -28.342,-74.363 -0,-102.705c28.342,-28.342 74.362,-28.342 102.705,0c28.342,28.342 28.342,74.363 -0,102.705c-28.343,28.342 -74.363,28.342 -102.705,0Z" style="fill:#b1b1b1;"/><path d="M1864.54,2273.6c-28.342,28.342 -74.362,28.342 -102.705,0c-28.342,-28.342 -28.342,-74.363 0,-102.705c28.343,-28.342 74.363,-28.342 102.705,0c28.342,28.342 28.342,74.363 0,102.705Z" style="fill:#b1b1b1;"/><path d="M1967.25,2479.01c-28.342,-28.342 -28.342,-74.363 0,-102.705c28.342,-28.342 74.363,-28.342 102.705,-0c28.342,28.342 28.342,74.363 -0,102.705c-28.342,28.342 -74.363,28.342 -102.705,-0Z" style="fill:#b1b1b1;"/><path d="M1659.13,2479.01c-28.343,28.342 -74.363,28.342 -102.705,-0c-28.342,-28.342 -28.342,-74.363 -0,-102.705c28.342,-28.342 74.362,-28.342 102.705,-0c28.342,28.342 28.342,74.363 -0,102.705Z" style="fill:#b1b1b1;"/><path d="M1761.84,2684.42c-28.342,-28.342 -28.342,-74.362 0,-102.704c28.343,-28.343 74.363,-28.343 102.705,-0c28.342,28.342 28.342,74.362 0,102.704c-28.342,28.343 -74.362,28.343 -102.705,0Z" style="fill:#b1b1b1;"/><path d="M1453.72,2684.42c-28.342,28.343 -74.363,28.343 -102.705,0c-28.342,-28.342 -28.342,-74.362 0,-102.704c28.342,-28.343 74.363,-28.343 102.705,-0c28.342,28.342 28.342,74.362 -0,102.704Z" style="fill:#b1b1b1;"/><path d="M1556.43,2889.83c-28.342,-28.342 -28.342,-74.363 -0,-102.705c28.342,-28.342 74.362,-28.342 102.705,0c28.342,28.342 28.342,74.363 -0,102.705c-28.343,28.342 -74.363,28.342 -102.705,0Z" style="fill:#b1b1b1;"/><path d="M1248.31,2889.83c-28.342,28.342 -74.362,28.342 -102.705,0c-28.342,-28.342 -28.342,-74.363 0,-102.705c28.343,-28.342 74.363,-28.342 102.705,0c28.342,28.342 28.342,74.363 0,102.705Z" style="fill:#b1b1b1;"/><path d="M1351.02,3095.24c-28.342,-28.342 -28.342,-74.363 0,-102.705c28.342,-28.342 74.363,-28.342 102.705,-0c28.342,28.342 28.342,74.363 -0,102.705c-28.342,28.342 -74.363,28.342 -102.705,-0Z" style="fill:#b1b1b1;"/><path d="M1042.9,3095.24c-28.343,28.342 -74.363,28.342 -102.705,-0c-28.343,-28.342 -28.343,-74.363 -0,-102.705c28.342,-28.342 74.362,-28.342 102.705,-0c28.342,28.342 28.342,74.363 -0,102.705Z" style="fill:#b1b1b1;"/><path d="M1145.61,3300.64c-28.342,-28.342 -28.342,-74.362 0,-102.704c28.343,-28.343 74.363,-28.343 102.705,-0c28.342,28.342 28.342,74.362 0,102.704c-28.342,28.343 -74.362,28.343 -102.705,0Z" style="fill:#b1b1b1;"/></g></g><g><path d="M3021.02,3209.16c28.755,-28.755 28.755,-75.446 -0,-104.2l-2270.06,-2270.06c-28.755,-28.754 -75.446,-28.754 -104.2,0c-28.755,28.755 -28.755,75.446 -0,104.2l2270.06,2270.06c28.755,28.754 75.445,28.754 104.2,-0Z" style="fill:#00da6c;"/><path d="M2395.82,3834.36c28.755,-28.755 28.755,-75.445 0,-104.2l-2270.06,-2270.06c-28.755,-28.755 -75.445,-28.755 -104.2,-0c-28.755,28.755 -28.755,75.445 0,104.2l2270.06,2270.06c28.755,28.755 75.446,28.755 104.2,0Z" style="fill:#00da6c;"/><path d="M2812.62,3417.56c28.755,-28.754 28.755,-75.445 0,-104.199l-2270.06,-2270.06c-28.755,-28.755 -75.445,-28.755 -104.2,0c-28.755,28.755 -28.755,75.445 -0,104.2l2270.06,2270.06c28.755,28.755 75.445,28.755 104.2,0Z" style="fill:#00da6c;"/><path d="M2604.22,3625.96c28.755,-28.754 28.755,-75.445 0,-104.2l-2270.06,-2270.06c-28.755,-28.755 -75.445,-28.755 -104.2,0c-28.755,28.755 -28.755,75.445 -0,104.2l2270.06,2270.06c28.755,28.755 75.445,28.755 104.2,0Z" style="fill:#00da6c;"/><path d="M3834.36,2395.82c28.755,-28.754 28.755,-75.445 0,-104.2l-2270.06,-2270.06c-28.755,-28.755 -75.445,-28.755 -104.2,0c-28.755,28.755 -28.755,75.445 -0,104.2l2270.06,2270.06c28.755,28.755 75.445,28.755 104.2,0Z" style="fill:#00da6c;"/><path d="M3209.16,3021.02c28.754,-28.755 28.754,-75.445 -0,-104.2l-2270.06,-2270.06c-28.754,-28.755 -75.445,-28.755 -104.2,-0c-28.754,28.754 -28.754,75.445 0,104.2l2270.06,2270.06c28.754,28.755 75.445,28.755 104.2,-0Z" style="fill:#00da6c;"/><path d="M3625.96,2604.22c28.755,-28.755 28.755,-75.445 0,-104.2l-2270.06,-2270.06c-28.755,-28.755 -75.445,-28.755 -104.2,-0c-28.755,28.755 -28.755,75.445 0,104.2l2270.06,2270.06c28.755,28.755 75.446,28.755 104.2,0Z" style="fill:#00da6c;"/><path d="M3417.56,2812.62c28.755,-28.755 28.755,-75.445 0,-104.2l-2270.06,-2270.06c-28.755,-28.755 -75.445,-28.755 -104.2,-0c-28.755,28.755 -28.755,75.445 0,104.2l2270.06,2270.06c28.754,28.755 75.445,28.755 104.199,0Z" style="fill:#00da6c;"/></g></svg>